<svg xmlns="http://www.w3.org/2000/svg" viewBox="0 0 441.77 71.35">
  <g data-name="Capa 2">
    <path d="M10.66 64.45A39.81 39.81 0 0 1 3.05 52.2 43.11 43.11 0 0 1 0 35.67a43.19 43.19 0 0 1 3.05-16.53A39.64 39.64 0 0 1 10.66 6.9 29.44 29.44 0 0 1 19.82 0l.24.24Q13.48 5.55 10 15.06a59.3 59.3 0 0 0-3.5 20.61A59.3 59.3 0 0 0 10 56.28q3.48 9.51 10.07 14.83l-.24.24a29.6 29.6 0 0 1-9.17-6.9Zm17.48-32.9A9.85 9.85 0 0 0 27 26.28a5.82 5.82 0 0 0-3.73-2.34l13-4.91V50.5a12.53 12.53 0 0 0 1.07 5.9 8.29 8.29 0 0 0 3.84 3.29H23.3a8.1 8.1 0 0 0 3.81-3.29 12.75 12.75 0 0 0 1-5.82Zm-.08-19A5 5 0 0 1 26.55 9a5.06 5.06 0 0 1 1.51-3.77 5.48 5.48 0 0 1 7.49 0A5 5 0 0 1 37.1 9a4.9 4.9 0 0 1-1.55 3.64 5.16 5.16 0 0 1-3.76 1.51 5 5 0 0 1-3.73-1.55Zm46.18 43.93a13.5 13.5 0 0 0 1-5.9V32.26a9.92 9.92 0 0 0-2-6.58 6.8 6.8 0 0 0-5.5-2.29 9.51 9.51 0 0 0-8.57 4.91v22.28a13.31 13.31 0 0 0 1 5.82 8.22 8.22 0 0 0 3.56 3.29H46.21A8.2 8.2 0 0 0 50 56.44a12.88 12.88 0 0 0 1-5.86v-19a10 10 0 0 0-1.11-5.35 5.86 5.86 0 0 0-3.73-2.34L59.13 19v6.65A12.41 12.41 0 0 1 64 20.57a13.82 13.82 0 0 1 7.13-1.86q5.88 0 9.08 3.37c2.14 2.24 3.21 5.46 3.21 9.63v18.87a12.92 12.92 0 0 0 1.07 5.94 7.58 7.58 0 0 0 3.61 3.17H70.71a7.55 7.55 0 0 0 3.53-3.21ZM100.47 6.9a39.45 39.45 0 0 1 7.61 12.24 43 43 0 0 1 3.06 16.53 42.93 42.93 0 0 1-3.06 16.53 39.62 39.62 0 0 1-7.61 12.25 29.69 29.69 0 0 1-9.15 6.9l-.32-.24a32.93 32.93 0 0 0 10.15-14.79 59.43 59.43 0 0 0 3.49-20.65A59.48 59.48 0 0 0 101.15 15 33 33 0 0 0 91 .24l.32-.24a29.53 29.53 0 0 1 9.15 6.9Zm25.29 52.83a28.61 28.61 0 0 1-8.28-3.68V41.78q4.27 8.32 8.84 12.09a15.67 15.67 0 0 0 10.26 3.76c3.28 0 5.85-.79 7.73-2.38a8.21 8.21 0 0 0 2.81-6.66 9.5 9.5 0 0 0-2-6.22 16 16 0 0 0-6.58-4.24l-8.72-3.41Q117.63 30 117.64 18.47a14.22 14.22 0 0 1 2.36-8.12 15.69 15.69 0 0 1 6.74-5.51 23.94 23.94 0 0 1 10-2 34.37 34.37 0 0 1 8.72 1A30.07 30.07 0 0 1 153 7.06v13.39q-3.57-7.29-7.81-10.7a15.08 15.08 0 0 0-9.71-3.41c-3.38 0-6 .72-7.85 2.14a7.09 7.09 0 0 0-2.77 5.95 8.61 8.61 0 0 0 2 5.9q2 2.27 6.82 4.24l9.51 3.89q6.18 2.53 9.08 6.26a14.55 14.55 0 0 1 2.89 9.2 16.49 16.49 0 0 1-2.46 9 16 16 0 0 1-7 6A24.8 24.8 0 0 1 135.15 61a35.1 35.1 0 0 1-9.39-1.27Zm61.95.36v-5.71a12.94 12.94 0 0 1-4.83 4.68 13.69 13.69 0 0 1-6.9 1.82q-5.55 0-8.64-3.29t-3.09-9.71V31.79a10.25 10.25 0 0 0-1.15-5.43 5.88 5.88 0 0 0-3.77-2.42L172.41 19v27.9c0 3.07.68 5.38 2 6.94a7.22 7.22 0 0 0 5.75 2.33 7.83 7.83 0 0 0 4.28-1.26 10.34 10.34 0 0 0 3.25-3.33v-20a10 10 0 0 0-1.11-5.35 5.82 5.82 0 0 0-3.72-2.34l13-4.91v32.94a6.62 6.62 0 0 0 1.3 4.4 8.09 8.09 0 0 0 3.93 2.34Zm53.47-36.43q4.08 5 4.08 13.76a27.5 27.5 0 0 1-2.65 12.44A19.2 19.2 0 0 1 235 58a22.53 22.53 0 0 1-11.5 2.85 26.42 26.42 0 0 1-7.29-1.07 22.07 22.07 0 0 1-6.5-3V15.54a9 9 0 0 0-1.35-5.43 6.87 6.87 0 0 0-4.52-2.34l14-5.95v23.63a12.86 12.86 0 0 1 4.92-5 14.29 14.29 0 0 1 7.24-1.74q7.1 0 11.18 4.95ZM233.33 54q2.89-4.65 2.89-13.52 0-8-2.65-12.53a8.4 8.4 0 0 0-7.65-4.51 9.29 9.29 0 0 0-8 4.36v27.53a7.55 7.55 0 0 0 2.58 2.22 9 9 0 0 0 4.56 1 9.21 9.21 0 0 0 8.27-4.55Zm65.8 2.36a14.11 14.11 0 0 0 .91-5.78V31.63c0-2.7-.58-4.74-1.75-6.14a6.11 6.11 0 0 0-5-2.1 7.55 7.55 0 0 0-4.29 1.22 10.58 10.58 0 0 0-3.25 3.85 26.61 26.61 0 0 1 .16 2.69v19.43a13.79 13.79 0 0 0 .95 5.82 7.61 7.61 0 0 0 3.57 3.29h-17.2a8.11 8.11 0 0 0 3.56-3.33 13.37 13.37 0 0 0 .95-5.78V31.79q0-4.12-1.74-6.26a6.06 6.06 0 0 0-5-2.14q-4.61 0-7.46 4.91v22.28a13.61 13.61 0 0 0 1 5.82 7.63 7.63 0 0 0 3.56 3.29h-17.53a8.1 8.1 0 0 0 3.81-3.29 12.89 12.89 0 0 0 1-5.82v-19a10.05 10.05 0 0 0-1.11-5.31 5.82 5.82 0 0 0-3.73-2.38L263.49 19v6.65a12.45 12.45 0 0 1 4.51-5.08 11.72 11.72 0 0 1 6.46-1.86 12.16 12.16 0 0 1 7.1 1.9 9.72 9.72 0 0 1 3.76 5.63 13.8 13.8 0 0 1 4.68-5.55 11.8 11.8 0 0 1 6.7-2q5.63 0 8.6 3.17t3 9.27v19.45a14.38 14.38 0 0 0 .91 5.86 7.48 7.48 0 0 0 3.61 3.25h-17.3a7.84 7.84 0 0 0 3.61-3.33Zm23.26-24.81a9.85 9.85 0 0 0-1.11-5.27 5.82 5.82 0 0 0-3.72-2.34l13-4.91V50.5a12.53 12.53 0 0 0 1.07 5.9 8.29 8.29 0 0 0 3.84 3.29h-17.91a8.07 8.07 0 0 0 3.8-3.29 12.75 12.75 0 0 0 1-5.82Zm-.08-19a5 5 0 0 1-1.5-3.55 5.05 5.05 0 0 1 1.5-3.77 5.48 5.48 0 0 1 7.49 0A5 5 0 0 1 331.35 9a4.9 4.9 0 0 1-1.55 3.64 5.16 5.16 0 0 1-3.8 1.47 5.06 5.06 0 0 1-3.69-1.51Zm25.45 47.34a22.68 22.68 0 0 1-6.26-2.58V46.77a23.7 23.7 0 0 0 6.73 8 13.5 13.5 0 0 0 8 2.89 7.25 7.25 0 0 0 4.95-1.55 5.4 5.4 0 0 0 1.82-4.35 5.75 5.75 0 0 0-1.39-4 10.88 10.88 0 0 0-4.48-2.65l-7.05-2.62a13.27 13.27 0 0 1-6.38-4.4 11.16 11.16 0 0 1-2.18-6.94 11.54 11.54 0 0 1 1.86-6.42 12.51 12.51 0 0 1 5.11-4.44 16.72 16.72 0 0 1 7.37-1.58 29 29 0 0 1 7 .83 16.72 16.72 0 0 1 5.31 2.18v9.36a17.44 17.44 0 0 0-5.71-6.66 12.82 12.82 0 0 0-7.37-2.54 8.49 8.49 0 0 0-5.19 1.39 4.6 4.6 0 0 0-1.9 3.92c0 2.8 1.79 4.92 5.39 6.34l7.37 2.86q8.88 3.48 8.88 11.65a11.85 11.85 0 0 1-3.93 9.39q-3.91 3.45-10.71 3.45a28 28 0 0 1-7.24-.99Zm56.4-36.39q4.08 4.8 3.76 12.81h-26.63q.24 7.61 4.28 12a13.88 13.88 0 0 0 10.78 4.44q7.22 0 11.26-4.76a15.56 15.56 0 0 1-4.92 9.43 14.26 14.26 0 0 1-9.75 3.41 17.68 17.68 0 0 1-9.51-2.5 16.2 16.2 0 0 1-6.22-7.13A25.27 25.27 0 0 1 375 40.35a27.1 27.1 0 0 1 2.22-11.26 17.88 17.88 0 0 1 6.26-7.65 16.44 16.44 0 0 1 9.43-2.73q7.17 0 11.25 4.79Zm-6.46 1.31a6.73 6.73 0 0 0-5.95-3.09 9.14 9.14 0 0 0-7.25 3.13c-1.82 2.09-2.87 5-3.13 8.76h18.23c.11-3.8-.53-6.74-1.9-8.8Zm22.19 35.08a22.81 22.81 0 0 1-6.26-2.58V46.77a23.84 23.84 0 0 0 6.74 8 13.48 13.48 0 0 0 8 2.89 7.27 7.27 0 0 0 4.95-1.55 5.39 5.39 0 0 0 1.78-4.32 5.79 5.79 0 0 0-1.38-4 11 11 0 0 0-4.48-2.65l-7.06-2.62a13.32 13.32 0 0 1-6.38-4.4 11.22 11.22 0 0 1-2.18-6.94 11.54 11.54 0 0 1 1.86-6.42 12.6 12.6 0 0 1 5.12-4.44 16.66 16.66 0 0 1 7.4-1.61 29 29 0 0 1 7 .83 16.72 16.72 0 0 1 5.31 2.18v9.36a17.53 17.53 0 0 0-5.71-6.66 12.82 12.82 0 0 0-7.37-2.54 8.49 8.49 0 0 0-5.23 1.39 4.58 4.58 0 0 0-1.87 3.92c0 2.8 1.8 4.92 5.39 6.34l7.37 2.86q8.88 3.48 8.88 11.65a11.88 11.88 0 0 1-3.92 9.39q-3.93 3.45-10.74 3.45a28.1 28.1 0 0 1-7.22-.99Z" style="fill:#fff" data-name="Capa 1"/>
  </g>
</svg>
